%FSLAX36Y36*%
%MOMM*%
%TF.GenerationSoftware,HFDM-Thermal-Solver,TestGen,1.0*%
%TF.FileFunction,Copper,L1,Top*%
%ADD10C,0.50*%
%ADD11C,2.00*%
%ADD12C,0.20*%
%ADD13R,1.00X1.00*%
G36*
X2000000Y2000000D02*
X98000000Y2000000D01*
X98000000Y98000000D01*
X2000000Y98000000D01*
X2000000Y2000000D01*
G37*
D10*
X42500000Y42500000D03*
X43500000Y42500000D03*
X44500000Y42500000D03*
X45500000Y42500000D03*
X46500000Y42500000D03*
X47500000Y42500000D03*
X48500000Y42500000D03*
X49500000Y42500000D03*
X50500000Y42500000D03*
X51500000Y42500000D03*
X52500000Y42500000D03*
X53500000Y42500000D03*
X54500000Y42500000D03*
X55500000Y42500000D03*
X56500000Y42500000D03*
X57500000Y42500000D03*
X42500000Y43500000D03*
X43500000Y43500000D03*
X44500000Y43500000D03*
X45500000Y43500000D03*
X46500000Y43500000D03*
X47500000Y43500000D03*
X48500000Y43500000D03*
X49500000Y43500000D03*
X50500000Y43500000D03*
X51500000Y43500000D03*
X52500000Y43500000D03*
X53500000Y43500000D03*
X54500000Y43500000D03*
X55500000Y43500000D03*
X56500000Y43500000D03*
X57500000Y43500000D03*
X42500000Y44500000D03*
X43500000Y44500000D03*
X44500000Y44500000D03*
X45500000Y44500000D03*
X46500000Y44500000D03*
X47500000Y44500000D03*
X48500000Y44500000D03*
X49500000Y44500000D03*
X50500000Y44500000D03*
X51500000Y44500000D03*
X52500000Y44500000D03*
X53500000Y44500000D03*
X54500000Y44500000D03*
X55500000Y44500000D03*
X56500000Y44500000D03*
X57500000Y44500000D03*
X42500000Y45500000D03*
X43500000Y45500000D03*
X44500000Y45500000D03*
X45500000Y45500000D03*
X46500000Y45500000D03*
X47500000Y45500000D03*
X48500000Y45500000D03*
X49500000Y45500000D03*
X50500000Y45500000D03*
X51500000Y45500000D03*
X52500000Y45500000D03*
X53500000Y45500000D03*
X54500000Y45500000D03*
X55500000Y45500000D03*
X56500000Y45500000D03*
X57500000Y45500000D03*
X42500000Y46500000D03*
X43500000Y46500000D03*
X44500000Y46500000D03*
X45500000Y46500000D03*
X46500000Y46500000D03*
X47500000Y46500000D03*
X48500000Y46500000D03*
X49500000Y46500000D03*
X50500000Y46500000D03*
X51500000Y46500000D03*
X52500000Y46500000D03*
X53500000Y46500000D03*
X54500000Y46500000D03*
X55500000Y46500000D03*
X56500000Y46500000D03*
X57500000Y46500000D03*
X42500000Y47500000D03*
X43500000Y47500000D03*
X44500000Y47500000D03*
X45500000Y47500000D03*
X46500000Y47500000D03*
X47500000Y47500000D03*
X48500000Y47500000D03*
X49500000Y47500000D03*
X50500000Y47500000D03*
X51500000Y47500000D03*
X52500000Y47500000D03*
X53500000Y47500000D03*
X54500000Y47500000D03*
X55500000Y47500000D03*
X56500000Y47500000D03*
X57500000Y47500000D03*
X42500000Y48500000D03*
X43500000Y48500000D03*
X44500000Y48500000D03*
X45500000Y48500000D03*
X46500000Y48500000D03*
X47500000Y48500000D03*
X48500000Y48500000D03*
X49500000Y48500000D03*
X50500000Y48500000D03*
X51500000Y48500000D03*
X52500000Y48500000D03*
X53500000Y48500000D03*
X54500000Y48500000D03*
X55500000Y48500000D03*
X56500000Y48500000D03*
X57500000Y48500000D03*
X42500000Y49500000D03*
X43500000Y49500000D03*
X44500000Y49500000D03*
X45500000Y49500000D03*
X46500000Y49500000D03*
X47500000Y49500000D03*
X48500000Y49500000D03*
X49500000Y49500000D03*
X50500000Y49500000D03*
X51500000Y49500000D03*
X52500000Y49500000D03*
X53500000Y49500000D03*
X54500000Y49500000D03*
X55500000Y49500000D03*
X56500000Y49500000D03*
X57500000Y49500000D03*
X42500000Y50500000D03*
X43500000Y50500000D03*
X44500000Y50500000D03*
X45500000Y50500000D03*
X46500000Y50500000D03*
X47500000Y50500000D03*
X48500000Y50500000D03*
X49500000Y50500000D03*
X50500000Y50500000D03*
X51500000Y50500000D03*
X52500000Y50500000D03*
X53500000Y50500000D03*
X54500000Y50500000D03*
X55500000Y50500000D03*
X56500000Y50500000D03*
X57500000Y50500000D03*
X42500000Y51500000D03*
X43500000Y51500000D03*
X44500000Y51500000D03*
X45500000Y51500000D03*
X46500000Y51500000D03*
X47500000Y51500000D03*
X48500000Y51500000D03*
X49500000Y51500000D03*
X50500000Y51500000D03*
X51500000Y51500000D03*
X52500000Y51500000D03*
X53500000Y51500000D03*
X54500000Y51500000D03*
X55500000Y51500000D03*
X56500000Y51500000D03*
X57500000Y51500000D03*
X42500000Y52500000D03*
X43500000Y52500000D03*
X44500000Y52500000D03*
X45500000Y52500000D03*
X46500000Y52500000D03*
X47500000Y52500000D03*
X48500000Y52500000D03*
X49500000Y52500000D03*
X50500000Y52500000D03*
X51500000Y52500000D03*
X52500000Y52500000D03*
X53500000Y52500000D03*
X54500000Y52500000D03*
X55500000Y52500000D03*
X56500000Y52500000D03*
X57500000Y52500000D03*
X42500000Y53500000D03*
X43500000Y53500000D03*
X44500000Y53500000D03*
X45500000Y53500000D03*
X46500000Y53500000D03*
X47500000Y53500000D03*
X48500000Y53500000D03*
X49500000Y53500000D03*
X50500000Y53500000D03*
X51500000Y53500000D03*
X52500000Y53500000D03*
X53500000Y53500000D03*
X54500000Y53500000D03*
X55500000Y53500000D03*
X56500000Y53500000D03*
X57500000Y53500000D03*
X42500000Y54500000D03*
X43500000Y54500000D03*
X44500000Y54500000D03*
X45500000Y54500000D03*
X46500000Y54500000D03*
X47500000Y54500000D03*
X48500000Y54500000D03*
X49500000Y54500000D03*
X50500000Y54500000D03*
X51500000Y54500000D03*
X52500000Y54500000D03*
X53500000Y54500000D03*
X54500000Y54500000D03*
X55500000Y54500000D03*
X56500000Y54500000D03*
X57500000Y54500000D03*
X42500000Y55500000D03*
X43500000Y55500000D03*
X44500000Y55500000D03*
X45500000Y55500000D03*
X46500000Y55500000D03*
X47500000Y55500000D03*
X48500000Y55500000D03*
X49500000Y55500000D03*
X50500000Y55500000D03*
X51500000Y55500000D03*
X52500000Y55500000D03*
X53500000Y55500000D03*
X54500000Y55500000D03*
X55500000Y55500000D03*
X56500000Y55500000D03*
X57500000Y55500000D03*
X42500000Y56500000D03*
X43500000Y56500000D03*
X44500000Y56500000D03*
X45500000Y56500000D03*
X46500000Y56500000D03*
X47500000Y56500000D03*
X48500000Y56500000D03*
X49500000Y56500000D03*
X50500000Y56500000D03*
X51500000Y56500000D03*
X52500000Y56500000D03*
X53500000Y56500000D03*
X54500000Y56500000D03*
X55500000Y56500000D03*
X56500000Y56500000D03*
X57500000Y56500000D03*
X42500000Y57500000D03*
X43500000Y57500000D03*
X44500000Y57500000D03*
X45500000Y57500000D03*
X46500000Y57500000D03*
X47500000Y57500000D03*
X48500000Y57500000D03*
X49500000Y57500000D03*
X50500000Y57500000D03*
X51500000Y57500000D03*
X52500000Y57500000D03*
X53500000Y57500000D03*
X54500000Y57500000D03*
X55500000Y57500000D03*
X56500000Y57500000D03*
X57500000Y57500000D03*
D11*
X15000000Y50000000D02*
X32500000Y50000000D01*
D12*
X75000000Y66000000D02*
X57500000Y66000000D01*
X75000000Y68000000D02*
X57500000Y68000000D01*
X75000000Y70000000D02*
X57500000Y70000000D01*
X75000000Y72000000D02*
X57500000Y72000000D01*
D11*
X50000000Y67500000D02*
X50000000Y98000000D01*
X50000000Y32500000D02*
X50000000Y2000000D01*
X32500000Y50000000D02*
X2000000Y50000000D01*
X67500000Y50000000D02*
X98000000Y50000000D01*
M02*
